<?xml version="1.0" encoding="utf-8"?>
<!-- Generator: Adobe Illustrator 23.1.1, SVG Export Plug-In . SVG Version: 6.00 Build 0)  -->
<svg version="1.1" id="Calque_1" xmlns="http://www.w3.org/2000/svg" xmlns:xlink="http://www.w3.org/1999/xlink" x="0px" y="0px"
	 viewBox="0 0 113.39 113.39" style="enable-background:new 0 0 113.39 113.39;" xml:space="preserve">
<style type="text/css">
	.st0{fill:#ECBD0B;stroke:#000000;stroke-width:0.6409;stroke-miterlimit:10;}
	.st1{font-family:'BerlinBold';}
	.st2{font-size:28.6591px;}
	.st3{fill:#ECBD0B;}
	.st4{fill:none;}
	.st5{fill:#FFFFFF;}
	.st6{fill:#B18E08;}
</style>
<text transform="matrix(1.819357e-03 -0.9422 1 4.811922e-04 31.3658 103.2466)" class="st0 st1 st2">Bit-bank</text>
<g>
	<rect x="35.9" y="11.48" class="st3" width="31" height="91.52"/>
	<ellipse class="st3" cx="66.9" cy="33.28" rx="23.12" ry="21.8"/>
	<ellipse class="st3" cx="80.46" cy="75.06" rx="29.62" ry="27.93"/>
	<rect x="51.4" y="79.99" class="st3" width="31" height="23.01"/>
</g>
<rect x="42.63" y="5.89" class="st3" width="8.2" height="7.18"/>
<rect x="42.63" y="100.59" class="st3" width="8.77" height="7.18"/>
<rect x="58.42" y="5.89" class="st3" width="8.48" height="7.18"/>
<rect x="58.42" y="100.41" class="st3" width="8.48" height="7.18"/>
<polygon class="st4" points="33.06,102.44 31.86,102.43 32.62,11.59 33.82,11.6 "/>
<polygon class="st3" points="10.22,102.99 9.02,103 9.49,11.49 10.6,11.48 "/>
<polygon class="st3" points="34.58,103.17 33.38,103.17 33.07,11.61 34.27,11.6 "/>
<g>
	<polygon class="st5" points="50.56,99.47 40.61,99.47 40.61,46.57 50.56,41.06 	"/>
	<polygon class="st5" points="67.1,99.47 57.15,99.47 57.15,36.4 67.1,29.82 	"/>
	<polygon class="st6" points="67.1,99.47 77.56,99.47 77.56,36.4 67.1,29.82 	"/>
	<polygon class="st6" points="50.22,99.47 60.68,99.47 60.68,46.57 50.22,41.06 	"/>
</g>
</svg>
