<?xml version="1.0" encoding="utf-8"?>
<!-- Generator: Adobe Illustrator 23.1.1, SVG Export Plug-In . SVG Version: 6.00 Build 0)  -->
<svg version="1.1" id="Calque_1" xmlns="http://www.w3.org/2000/svg" xmlns:xlink="http://www.w3.org/1999/xlink" x="0px" y="0px"
	 viewBox="0 0 186.16 113.39" style="enable-background:new 0 0 186.16 113.39;" xml:space="preserve">
<style type="text/css">
	.st0{fill:#ECBD0B;}
	.st1{fill:#FFFFFF;}
	.st2{fill:#B18E08;}
	.st3{fill:#ECBD0B;stroke:#000000;stroke-width:0.15;stroke-miterlimit:10;}
	.st4{font-family:'BerlinBold';}
	.st5{font-size:6.7163px;}
	.st6{fill:none;}
	.st7{fill:#ECBD0B;stroke:#000000;stroke-width:0.1726;stroke-miterlimit:10;}
	.st8{font-size:7.7172px;}
</style>
<g>
	<g>
		<polygon class="st0" points="113.24,69.52 107.31,73.69 86.52,52.04 92.45,47.87 		"/>
		
			<ellipse transform="matrix(0.5853 -0.8108 0.8108 0.5853 -2.6013 100.9636)" class="st0" cx="97.41" cy="53.02" rx="5.27" ry="7.25"/>
		
			<ellipse transform="matrix(0.5853 -0.8108 0.8108 0.5853 -4.1254 114.1063)" class="st0" cx="109.49" cy="61.09" rx="6.75" ry="9.29"/>
		<polygon class="st0" points="116.21,67.43 110.28,71.61 105.05,66.16 110.98,61.99 		"/>
	</g>
	<polygon class="st0" points="90.29,50.65 89.21,51.57 87.66,49.79 88.74,48.87 	"/>
	<polygon class="st0" points="111.13,72.34 110.2,73.08 108.62,71.33 109.54,70.59 	"/>
	<polygon class="st0" points="92.69,48.99 91.65,49.86 90.08,48.08 91.13,47.21 	"/>
	<polygon class="st0" points="113.41,70.71 112.43,71.51 110.86,69.75 111.84,68.95 	"/>
	<polygon class="st1" points="109.96,70.91 108.05,72.25 97.76,61.53 98.59,59.07 	"/>
	<polygon class="st1" points="113.12,68.68 111.22,70.02 98.95,57.24 99.57,54.57 	"/>
	<polygon class="st2" points="113.12,68.68 115.12,67.27 102.85,54.49 99.57,54.57 	"/>
	<polygon class="st2" points="109.89,70.95 111.89,69.55 101.6,58.83 98.53,59.12 	"/>
	<text transform="matrix(-0.9067 -0.9557 0.8234 -0.5675 106.2071 74.4996)" class="st3 st4 st5">Bit-bank</text>
	<polygon class="st6" points="106.64,73.95 106.41,74.11 85.92,52.51 86.15,52.35 	"/>
	<polygon class="st0" points="101.72,77.34 101.49,77.5 81,55.9 81.23,55.74 	"/>
	<polygon class="st0" points="107.16,73.82 106.95,73.96 85.84,52.18 86.05,52.04 	"/>
</g>
<text transform="matrix(1.819357e-03 -0.9422 1 4.811922e-04 88.3643 52.7843)" class="st7 st4 st8">Bit-bank</text>
<g>
	<rect x="89.59" y="28.07" class="st0" width="8.35" height="24.64"/>
	<ellipse class="st0" cx="97.93" cy="33.94" rx="6.23" ry="5.87"/>
	<ellipse class="st0" cx="101.58" cy="45.2" rx="7.98" ry="7.52"/>
	<rect x="93.76" y="46.52" class="st0" width="8.35" height="6.19"/>
</g>
<rect x="91.4" y="26.57" class="st0" width="2.21" height="1.93"/>
<rect x="91.4" y="52.07" class="st0" width="2.36" height="1.93"/>
<rect x="95.65" y="26.57" class="st0" width="2.28" height="1.93"/>
<rect x="95.65" y="52.02" class="st0" width="2.28" height="1.93"/>
<polygon class="st6" points="88.82,52.57 88.5,52.57 88.7,28.1 89.03,28.11 "/>
<polygon class="st0" points="82.67,52.72 82.35,52.72 82.47,28.08 82.77,28.07 "/>
<polygon class="st0" points="89.23,52.76 88.91,52.76 88.82,28.11 89.15,28.11 "/>
<g>
	<polygon class="st1" points="93.53,51.77 90.85,51.77 90.85,37.52 93.53,36.04 	"/>
	<polygon class="st1" points="97.99,51.77 95.31,51.77 95.31,34.78 97.99,33.01 	"/>
	<polygon class="st2" points="97.99,51.77 100.8,51.77 100.8,34.78 97.99,33.01 	"/>
	<polygon class="st2" points="93.44,51.77 96.26,51.77 96.26,37.52 93.44,36.04 	"/>
</g>
</svg>
